<svg xmlns="http://www.w3.org/2000/svg" xmlns:xlink="http://www.w3.org/1999/xlink" viewBox="0,0,256,256" width="40px" height="40px" fill-rule="nonzero"><g fill="none" fill-rule="nonzero" stroke="none" stroke-width="1" stroke-linecap="butt" stroke-linejoin="miter" stroke-miterlimit="10" stroke-dasharray="" stroke-dashoffset="0" font-family="none" font-weight="none" font-size="none" text-anchor="none" style="mix-blend-mode: normal"><g transform="scale(16,16)"><path d="M7.5,12.5c2.757,0 5,-2.243 5,-5c0,-1.032 -0.338,-2.04 -0.976,-2.915l-0.344,-0.472l-0.68,0.68v-3.293h3.293l-1.192,1.192l0.291,0.351c1.037,1.251 1.608,2.834 1.608,4.457c0,3.86 -3.141,7 -7,7z" fill-opacity="0.03922" fill="#3705f4"></path><path d="M12.586,2l-0.016,0.016l-0.644,0.644l0.581,0.701c0.963,1.163 1.493,2.632 1.493,4.139c0,3.416 -2.649,6.225 -6,6.481v-1.003c2.799,-0.253 5,-2.613 5,-5.477c0,-1.138 -0.371,-2.248 -1.072,-3.209l-0.689,-0.944l-0.239,0.238v-1.586h1.586M15,1h-5v5l1.12,-1.12c0.54,0.74 0.88,1.634 0.88,2.62c0,2.485 -2.015,4.5 -4.5,4.5c-0.171,0 -0.334,-0.032 -0.5,-0.05v3.025c0.166,0.011 0.331,0.025 0.5,0.025c4.142,0 7.5,-3.358 7.5,-7.5c0,-1.817 -0.648,-3.479 -1.724,-4.776l1.724,-1.724z" fill="#4e7ab5"></path><g><path d="M1.207,13.5l1.197,-1.197l-0.291,-0.351c-1.055,-1.274 -1.613,-2.814 -1.613,-4.452c0,-3.86 3.141,-7 7,-7v2c-2.757,0 -5,2.243 -5,5c0,1.032 0.338,2.04 0.976,2.915l0.345,0.472l0.68,-0.68v3.293z" fill-opacity="0.03922" fill="#3705f4"></path><path d="M7,1.019v1.003c-2.799,0.254 -5,2.614 -5,5.478c0,1.138 0.371,2.248 1.072,3.209l0.689,0.944l0.239,-0.239v1.586h-1.586l0.022,-0.022l0.644,-0.644l-0.581,-0.701c-0.981,-1.183 -1.499,-2.612 -1.499,-4.133c0,-3.416 2.649,-6.225 6,-6.481M7.5,0c-4.142,0 -7.5,3.358 -7.5,7.5c0,1.816 0.654,3.474 1.729,4.771l-1.729,1.729h5v-5l-1.12,1.12c-0.54,-0.74 -0.88,-1.634 -0.88,-2.62c0,-2.485 2.015,-4.5 4.5,-4.5c0.171,0 0.334,0.032 0.5,0.05v-3.025c-0.166,-0.011 -0.331,-0.025 -0.5,-0.025z" fill="#4e7ab5"></path></g></g></g></svg>